<svg width="165" height="165" viewBox="0 0 165 165" fill="none" xmlns="http://www.w3.org/2000/svg">
<path d="M123.39 123.39C120.446 123.823 117.084 124.651 114.14 124.27C101.538 122.643 94.8481 119.31 82.2192 119.364C69.5904 119.418 62.8712 122.809 50.2551 124.545C47.3075 124.95 43.9525 124.151 41.0122 123.744C40.6045 120.803 39.8059 117.448 40.2113 114.501C41.9466 101.885 45.3377 95.1655 45.3919 82.5367C45.4461 69.9078 42.9091 62.9888 40.4855 50.6159C40.0742 48.5162 40.9328 44.3096 41.3658 41.3657C44.3096 40.9328 47.6756 40.0778 50.6159 40.4855C63.1101 42.2178 69.9078 45.4461 82.5367 45.3919C95.1655 45.3377 101.885 41.9466 114.501 40.2113C117.448 39.8059 120.803 40.6045 123.744 41.0122C124.151 43.9525 124.95 47.3075 124.545 50.2551C122.809 62.8712 119.418 69.5904 119.364 82.2192C119.31 94.848 122.643 101.538 124.27 114.14C124.651 117.084 123.823 120.446 123.39 123.39Z" fill="#FECB00"/>
<path d="M102.418 63.0665C104.739 59.7513 108.226 55.977 112.779 54.5059C117.443 52.9991 122.961 53.986 129.085 59.658C130.191 60.6825 130.952 61.4555 131.317 62.0334C131.474 62.2819 131.75 62.783 131.585 63.3523C131.475 63.732 131.229 63.9587 130.99 64.0974C132.152 64.3194 133.373 64.6951 134.62 65.243C139.605 67.4327 145.234 72.3962 150.084 81.5569C150.238 81.8493 150.238 82.1994 150.084 82.4919C145.234 91.6526 139.605 96.616 134.62 98.8057C133.374 99.3534 132.153 99.7293 130.992 99.9513C131.23 100.09 131.476 100.317 131.586 100.697C131.75 101.266 131.473 101.768 131.316 102.016C130.952 102.594 130.191 103.367 129.085 104.391C122.961 110.063 117.443 111.05 112.78 109.543C108.226 108.072 104.739 104.297 102.418 100.982C102.14 100.585 102.187 100.045 102.53 99.7021C104.135 98.0971 105.442 95.5766 106.356 92.4908C107.266 89.42 107.763 85.8668 107.806 82.2778C107.85 78.6887 107.438 75.0955 106.551 71.9433C105.661 68.7806 104.311 66.1283 102.53 64.3467C102.187 64.0037 102.14 63.4638 102.418 63.0665ZM123.051 94.7654C122.174 93.921 120.381 94.3047 120.136 95.9587C120.036 96.6386 120.191 97.4147 120.87 98.0855C121.547 98.7548 122.848 99.4169 125.22 99.6475C124.355 99.3243 123.614 98.866 123.036 98.2878C122.646 97.8974 122.646 97.2641 123.036 96.8736C123.542 96.3678 123.593 95.9633 123.554 95.6818C123.507 95.3429 123.299 95.0048 123.051 94.7654ZM120.875 65.9702C120.196 66.6425 120.041 67.4183 120.138 68.0942C120.375 69.7532 122.204 70.1276 123.036 69.2965C123.291 69.0416 123.501 68.6987 123.549 68.3594C123.589 68.0801 123.541 67.6803 123.036 67.1751C122.646 66.7847 122.646 66.1514 123.036 65.7609C123.612 65.1847 124.349 64.7277 125.211 64.4047C122.848 64.6378 121.552 65.3009 120.875 65.9702Z" fill="#005293" stroke="white" stroke-width="2" stroke-linejoin="round"/>
<path d="M63.7736 62.3379C60.4584 60.0172 56.6842 56.5298 55.213 51.9764C53.7063 47.3124 54.6932 41.7948 60.3651 35.6708C61.3896 34.5647 62.1627 33.8035 62.7405 33.439C62.9891 33.2823 63.4901 33.0061 64.0595 33.1711C64.4391 33.2813 64.6658 33.5268 64.8046 33.7656C65.0265 32.6037 65.4022 31.3829 65.9501 30.1355C68.1398 25.1508 73.1033 19.5221 82.264 14.6724C82.5565 14.5177 82.9065 14.5177 83.199 14.6724C92.3597 19.5221 97.3232 25.1508 99.5129 30.1355C100.061 31.3824 100.436 32.6027 100.658 33.7642C100.797 33.5255 101.024 33.2802 101.404 33.1704C101.974 33.0059 102.475 33.2829 102.723 33.4397C103.301 33.8043 104.074 34.565 105.098 35.6708C110.77 41.7948 111.757 47.3124 110.25 51.9764C108.779 56.5298 105.005 60.0172 101.689 62.3378C101.292 62.6158 100.752 62.5687 100.409 62.226C98.8042 60.621 96.2837 59.3137 93.1979 58.3997C90.1271 57.4903 86.5739 56.9929 82.9849 56.9496C79.3958 56.9064 75.8027 57.3182 72.6504 58.205C69.4877 59.0949 66.8354 60.4444 65.0538 62.226C64.7108 62.5687 64.171 62.6157 63.7736 62.3379ZM95.4725 41.7054C94.6281 42.5823 95.0119 44.3752 96.6658 44.6194C97.3458 44.7198 98.1218 44.5649 98.7926 43.8861C99.462 43.2086 100.124 41.9082 100.355 39.5357C100.031 40.4014 99.5732 41.1417 98.995 41.7199C98.6045 42.1101 97.9712 42.1101 97.5807 41.7199C97.0749 41.214 96.6704 41.1628 96.3889 41.202C96.05 41.2494 95.7119 41.4569 95.4725 41.7054ZM66.6773 43.8806C67.3496 44.5597 68.1255 44.7146 68.8014 44.6181C70.4603 44.3811 70.8347 42.5515 70.0036 41.7199C69.7487 41.465 69.4058 41.2553 69.0665 41.2068C68.7872 41.167 68.3874 41.2148 67.8823 41.7199C67.4918 42.11 66.8585 42.11 66.468 41.7199C65.8919 41.1437 65.4348 40.4065 65.1118 39.5447C65.3449 41.9084 66.008 43.2043 66.6773 43.8806Z" fill="#005293" stroke="white" stroke-width="2" stroke-linejoin="round"/>
<path d="M63.045 100.982C60.7243 104.297 57.2369 108.072 52.6835 109.543C48.0195 111.05 42.5019 110.063 36.3779 104.391C35.2718 103.366 34.5106 102.593 34.1461 102.015C33.9894 101.767 33.7132 101.266 33.8782 100.696C33.9884 100.317 34.234 100.09 34.4727 99.9513C33.3108 99.7293 32.09 99.3536 30.8426 98.8057C25.8579 96.616 20.2293 91.6526 15.3795 82.4919C15.2248 82.1994 15.2248 81.8493 15.3795 81.5569C20.2293 72.3962 25.8579 67.4327 30.8426 65.243C32.0895 64.6953 33.3099 64.3194 34.4714 64.0974C34.2326 63.9585 33.9873 63.7316 33.8775 63.3517C33.713 62.7823 33.99 62.2812 34.1468 62.0327C34.5114 61.4549 35.2722 60.6821 36.3779 59.658C42.5019 53.986 48.0195 52.9991 52.6835 54.5059C57.2369 55.977 60.7243 59.7513 63.045 63.0665C63.3229 63.4638 63.2759 64.0037 62.9331 64.3467C61.3282 65.9517 60.0208 68.4722 59.1069 71.558C58.1974 74.6288 57.7 78.182 57.6567 81.771C57.6135 85.3601 58.0253 88.9532 58.9121 92.1055C59.802 95.2682 61.1516 97.9205 62.9331 99.7021C63.2759 100.045 63.3229 100.585 63.045 100.982ZM42.4125 69.2833C43.2895 70.1278 45.0823 69.744 45.3266 68.0901C45.4269 67.4101 45.272 66.6341 44.5932 65.9633C43.9158 65.2939 42.6153 64.6318 40.2429 64.4013C41.1085 64.7244 41.8488 65.1827 42.427 65.7609C42.8172 66.1514 42.8172 66.7847 42.427 67.1751C41.9212 67.681 41.8699 68.0855 41.9091 68.367C41.9565 68.7059 42.164 69.044 42.4125 69.2833ZM44.5877 98.0786C45.2668 97.4063 45.4217 96.6304 45.3252 95.9545C45.0882 94.2956 43.2587 93.9211 42.427 94.7523C42.1721 95.0072 41.9624 95.3501 41.9139 95.6894C41.8741 95.9686 41.9219 96.3685 42.427 96.8736C42.8172 97.2641 42.8172 97.8974 42.427 98.2878C41.8508 98.864 41.1136 99.3211 40.2518 99.644C42.6155 99.4109 43.9115 98.7479 44.5877 98.0786Z" fill="#005293" stroke="white" stroke-width="2" stroke-linejoin="round"/>
<path d="M101.689 101.711C105.005 104.032 108.779 107.519 110.25 112.072C111.757 116.736 110.77 122.254 105.098 128.378C104.073 129.484 103.3 130.245 102.722 130.61C102.474 130.766 101.973 131.043 101.404 130.878C101.024 130.767 100.797 130.522 100.658 130.283C100.436 131.445 100.061 132.666 99.5129 133.913C97.3232 138.898 92.3597 144.527 83.199 149.376C82.9065 149.531 82.5565 149.531 82.264 149.376C73.1033 144.527 68.1399 138.898 65.9502 133.913C65.4025 132.666 65.0266 131.446 64.8046 130.285C64.6656 130.523 64.4387 130.769 64.0588 130.878C63.4895 131.043 62.9884 130.766 62.7399 130.609C62.1621 130.244 61.3893 129.484 60.3651 128.378C54.6932 122.254 53.7063 116.736 55.213 112.072C56.6842 107.519 60.4584 104.032 63.7736 101.711C64.171 101.433 64.7108 101.48 65.0538 101.823C66.6588 103.428 69.1793 104.735 72.2651 105.649C75.3359 106.559 78.8891 107.056 82.4781 107.099C86.0672 107.142 89.6603 106.731 92.8126 105.844C95.9753 104.954 98.6276 103.604 100.409 101.823C100.752 101.48 101.292 101.433 101.689 101.711ZM69.9905 122.343C70.8349 121.466 70.4512 119.674 68.7972 119.429C68.1172 119.329 67.3412 119.484 66.6704 120.163C66.0011 120.84 65.339 122.141 65.1084 124.513C65.4316 123.647 65.8898 122.907 66.4681 122.329C66.8585 121.939 67.4918 121.939 67.8823 122.329C68.3881 122.835 68.7926 122.886 69.0741 122.847C69.413 122.799 69.7511 122.592 69.9905 122.343ZM98.7857 120.168C98.1134 119.489 97.3376 119.334 96.6616 119.431C95.0027 119.668 94.6283 121.497 95.4594 122.329C95.7143 122.584 96.0572 122.793 96.3965 122.842C96.6758 122.882 97.0756 122.834 97.5807 122.329C97.9712 121.939 98.6045 121.939 98.995 122.329C99.5712 122.905 100.028 123.642 100.351 124.504C100.118 122.14 99.455 120.844 98.7857 120.168Z" fill="#005293" stroke="white" stroke-width="2" stroke-linejoin="round"/>
<path d="M53.5642 81.9797C53.5642 69.8983 70.8887 52.8124 82.7314 52.8124C94.5742 52.8124 111.899 69.8981 111.899 81.9797C111.899 94.0613 94.8131 111.147 82.7314 111.147C70.6498 111.147 53.5641 94.061 53.5642 81.9797Z" fill="#005293" stroke="white" stroke-width="2"/>
<path d="M81.7315 102.024C81.7315 92.0243 81.0703 87.3631 79.2315 85.5243C77.3927 83.6855 72.7315 83.0243 62.7315 83.0243C60.7315 83.0243 60.7315 81.0243 62.7315 81.0243C72.7315 81.0243 77.3927 80.3631 79.2315 78.5243C81.0703 76.6855 81.7315 72.0243 81.7315 62.0243C81.7315 60.0244 83.7315 60.0244 83.7315 62.0243C83.7315 72.0243 84.3927 76.6855 86.2315 78.5243C88.0703 80.3631 92.7315 81.0243 102.732 81.0243C104.732 81.0243 104.732 83.0244 102.732 83.0243C92.7315 83.0239 88.0703 83.6855 86.2315 85.5243C84.3927 87.3631 83.7315 92.0243 83.7315 102.024C83.7315 104.024 81.7315 104.024 81.7315 102.024Z" fill="#FECB00"/>
<g style="mix-blend-mode:soft-light">
<path d="M89.8744 89.1672C87.3029 89.1672 84.7315 90.453 84.7315 93.0244C84.7315 93.0244 84.9237 89.8764 85.3744 88.5244C86.0172 86.5958 87.3029 85.3101 89.2315 84.6672C90.8987 84.1115 93.7315 84.0244 93.7315 84.0244C91.1601 84.0244 89.8744 86.5958 89.8744 89.1672Z" fill="white" fill-opacity="0.5"/>
</g>
<g style="mix-blend-mode:soft-light">
<path d="M75.5887 89.1672C75.5887 86.5958 74.303 84.0244 71.7315 84.0244C71.7315 84.0244 74.8795 84.2166 76.2315 84.6672C78.1601 85.3101 79.4458 86.5958 80.0887 88.5244C80.6444 90.1916 80.7315 93.0244 80.7315 93.0244C80.7315 90.453 78.1601 89.1672 75.5887 89.1672Z" fill="white" fill-opacity="0.5"/>
</g>
<g style="mix-blend-mode:soft-light">
<path d="M89.8744 74.8815C89.8744 77.453 91.1601 80.0244 93.7315 80.0244C93.7315 80.0244 90.5836 79.8322 89.2315 79.3815C87.3029 78.7387 86.0172 77.453 85.3744 75.5244C84.8186 73.8572 84.7315 71.0244 84.7315 71.0244C84.7315 73.5958 87.3029 74.8815 89.8744 74.8815Z" fill="white" fill-opacity="0.5"/>
</g>
<g style="mix-blend-mode:soft-light">
<path d="M75.5887 74.8815C78.1601 74.8815 80.7315 73.5958 80.7315 71.0244C80.7315 71.0244 80.5393 74.1724 80.0887 75.5244C79.4458 77.453 78.1601 78.7387 76.2315 79.3815C74.5643 79.9373 71.7315 80.0244 71.7315 80.0244C74.3029 80.0244 75.5887 77.453 75.5887 74.8815Z" fill="white" fill-opacity="0.5"/>
</g>
<circle cx="96.8736" cy="120.915" r="1.5" transform="rotate(45 96.8736 120.915)" fill="white"/>
<circle cx="68.5894" cy="120.915" r="1.5" transform="rotate(45 68.5894 120.915)" fill="white"/>
<circle cx="43.8406" cy="96.1665" r="1.5" transform="rotate(45 43.8406 96.1665)" fill="white"/>
<circle cx="43.8406" cy="67.8822" r="1.5" transform="rotate(45 43.8406 67.8822)" fill="white"/>
<circle cx="68.5894" cy="43.1335" r="1.5" transform="rotate(45 68.5894 43.1335)" fill="white"/>
<circle cx="121.622" cy="67.8822" r="1.5" transform="rotate(45 121.622 67.8822)" fill="white"/>
<circle cx="121.622" cy="96.1665" r="1.5" transform="rotate(45 121.622 96.1665)" fill="white"/>
<circle cx="96.8736" cy="43.1335" r="1.5" transform="rotate(45 96.8736 43.1335)" fill="white"/>
</svg>
